<svg xmlns="http://www.w3.org/2000/svg" viewBox="0 0 512 512">
  <rect width="512" height="512" rx="15%" fill="#003087"></rect>
  <path fill="#009cde" d="M312 142c-6-2-13-3-20-3H202c-7 0-12 5-14 11l-42 257c-1 5 2 9 7 9h52c5 0 9-3 10-8l9-54c1-5 5-8 10-8h29c47 0 84-21 95-66 6-22 4-43-6-58-10-15-27-25-50-29z"></path>
  <path fill="#012169" d="M208 120h94c32 0 61 11 79 33 18 22 24 53 16 87-13 60-59 91-128 91h-27c-5 0-9 3-10 8l-10 61c-1 5-5 8-10 8h-52c-5 0-8-4-7-9l44-274c1-6 6-11 11-11z"></path>
</svg>
